<svg width="24" height="24" viewBox="0 0 24 24" fill="none" xmlns="http://www.w3.org/2000/svg">
<path d="M21.2217 12.077H23.9996" stroke="#C8C4C4" stroke-width="2.0284"/>
<path d="M0 12.077H15.3009" stroke="#C8C4C4" stroke-width="2.0284"/>
<path d="M9.30615 4.1676H24.0002" stroke="#C8C4C4" stroke-width="2.0284"/>
<path d="M0 4.1676H3.39472" stroke="#C8C4C4" stroke-width="2.0284"/>
<path d="M13.4795 19.9863H23.9992" stroke="#C8C4C4" stroke-width="2.0284"/>
<path d="M0 19.9863H7.55918" stroke="#C8C4C4" stroke-width="2.0284"/>
<path d="M6.34967 6.97456C7.98472 6.97456 9.31019 5.64909 9.31019 4.01404C9.31019 2.37899 7.98472 1.05353 6.34967 1.05353C4.71463 1.05353 3.38916 2.37899 3.38916 4.01404C3.38916 5.64909 4.71463 6.97456 6.34967 6.97456Z" stroke="#C8C4C4" stroke-width="2.0284"/>
<path d="M18.2603 15.0371C19.8954 15.0371 21.2208 13.7116 21.2208 12.0765C21.2208 10.4415 19.8954 9.11603 18.2603 9.11603C16.6253 9.11603 15.2998 10.4415 15.2998 12.0765C15.2998 13.7116 16.6253 15.0371 18.2603 15.0371Z" stroke="#C8C4C4" stroke-width="2.0284"/>
<path d="M10.5201 22.9464C12.1551 22.9464 13.4806 21.621 13.4806 19.9859C13.4806 18.3509 12.1551 17.0254 10.5201 17.0254C8.88504 17.0254 7.55957 18.3509 7.55957 19.9859C7.55957 21.621 8.88504 22.9464 10.5201 22.9464Z" stroke="#C8C4C4" stroke-width="2.0284"/>
</svg>
