<svg width="29" height="29" viewBox="0 0 29 29" fill="none" xmlns="http://www.w3.org/2000/svg">
<path d="M19.26 14.4C19.26 11.7 17.1 9.54 14.4 9.54C11.7 9.54 9.54 11.7 9.54 14.4C9.54 17.1 11.7 19.26 14.4 19.26C17.1 19.26 19.26 17.1 19.26 14.4ZM21.78 14.4C21.78 18.54 18.54 21.78 14.4 21.78C10.26 21.78 7.02 18.54 7.02 14.4C7.02 10.26 10.26 7.02 14.4 7.02C18.54 7.02 21.78 10.26 21.78 14.4ZM23.76 6.66C23.76 7.74 23.04 8.46 21.96 8.46C20.88 8.46 20.16 7.74 20.16 6.66C20.16 5.58 20.88 4.86 21.96 4.86C23.04 4.86 23.76 5.76 23.76 6.66ZM14.4 2.52C12.24 2.52 7.74 2.34 5.94 3.06C4.68 3.6 3.6 4.68 3.24 5.94C2.52 7.74 2.7 12.24 2.7 14.4C2.7 16.56 2.52 21.06 3.24 22.86C3.6 24.12 4.68 25.2 5.94 25.56C7.74 26.28 12.42 26.1 14.4 26.1C16.38 26.1 21.06 26.28 22.86 25.56C24.12 25.02 25.02 24.12 25.56 22.86C26.28 20.88 26.1 16.38 26.1 14.4C26.1 12.42 26.28 7.74 25.56 5.94C25.2 4.68 24.12 3.6 22.86 3.24C21.06 2.34 16.56 2.52 14.4 2.52ZM28.8 14.4V20.34C28.8 22.5 28.08 24.66 26.46 26.46C24.84 28.08 22.68 28.8 20.34 28.8H8.46C6.3 28.8 4.14 28.08 2.34 26.46C0.9 24.84 0 22.68 0 20.34V8.46C0 6.12 0.9 3.96 2.34 2.34C4.14 0.9 6.3 0 8.46 0H20.34C22.5 0 24.66 0.72 26.46 2.34C27.9 3.96 28.8 6.12 28.8 8.46V14.4Z" fill="#120D0A"/>
</svg>
