<svg width="28" height="30" viewBox="0 0 28 30" fill="none" xmlns="http://www.w3.org/2000/svg">
<path d="M13.9998 13.5148C9.91377 13.5148 9.08577 7.32284 9.08577 7.32284C8.59977 4.10084 10.0758 0.464844 13.9458 0.464844C17.8338 0.464844 19.3098 4.10084 18.8238 7.32284C18.8238 7.32284 18.0858 13.5148 13.9998 13.5148ZM13.9998 18.1408L18.8958 14.8648C23.1978 14.8648 27.0318 19.0588 27.0318 23.0188V27.5008C27.0318 27.5008 20.4618 29.5348 13.9998 29.5348C7.42977 29.5348 0.967773 27.5008 0.967773 27.5008V23.0188C0.967773 18.9688 4.45977 14.9548 9.01377 14.9548L13.9998 18.1408Z" fill="#120D0A"/>
</svg>
