<svg width="32" height="22" viewBox="0 0 32 22" fill="none" xmlns="http://www.w3.org/2000/svg">
<path d="M3.966 0.199951H27.816C30.066 0.199951 31.2 1.26195 31.2 3.42195V18.578C31.2 20.72 30.066 21.8 27.816 21.8H3.966C1.716 21.8 0.582001 20.72 0.582001 18.578V3.42195C0.582001 1.26195 1.716 0.199951 3.966 0.199951ZM15.882 15.68L28.014 5.72595C28.446 5.36595 28.788 4.53795 28.248 3.79995C27.726 3.06195 26.772 3.04395 26.142 3.49395L15.882 10.442L5.64 3.49395C5.01 3.04395 4.056 3.06195 3.534 3.79995C2.994 4.53795 3.336 5.36595 3.768 5.72595L15.882 15.68Z" fill="#120D0A"/>
</svg>
