<svg width="27" height="18" viewBox="0 0 27 18" fill="none" xmlns="http://www.w3.org/2000/svg">
<path d="M3.80535 0H23.6804C25.5554 0 26.5004 0.885 26.5004 2.685V15.315C26.5004 17.1 25.5554 18 23.6804 18H3.80535C1.93035 18 0.985352 17.1 0.985352 15.315V2.685C0.985352 0.885 1.93035 0 3.80535 0ZM13.7354 12.9L23.8454 4.605C24.2054 4.305 24.4904 3.615 24.0404 3C23.6054 2.385 22.8104 2.37 22.2854 2.745L13.7354 8.535L5.20035 2.745C4.67535 2.37 3.88035 2.385 3.44535 3C2.99535 3.615 3.28035 4.305 3.64035 4.605L13.7354 12.9Z" fill="#636363"/>
</svg>
