<svg width="64" height="40" viewBox="0 0 64 40" fill="none" xmlns="http://www.w3.org/2000/svg">
<path d="M3.89434 0H59.8943C61.6617 0 63.0943 1.43272 63.0943 3.2V36.8C63.0943 38.5674 61.6617 40 59.8943 40H3.89434C2.12706 40 0.694336 38.5674 0.694336 36.8V3.2C0.694336 1.43272 2.12706 0 3.89434 0Z" fill="#16366F"/>
<path d="M36.615 19.9999C36.615 27.9313 30.1854 34.3599 22.2542 34.3599C14.323 34.3599 7.89417 27.931 7.89417 19.9999C7.89417 12.0693 14.3231 5.63989 22.2542 5.63989C30.1851 5.63989 36.615 12.0695 36.615 19.9999Z" fill="#D9222A"/>
<path d="M41.5333 5.63965C37.8229 5.63965 34.4419 7.04733 31.8933 9.35693C31.3741 9.82805 30.8895 10.3359 30.4433 10.8766H33.3446C33.7419 11.3596 34.1075 11.8676 34.4394 12.3976H29.3486C29.0425 12.8873 28.7662 13.3952 28.5213 13.9183H35.2663C35.4977 14.4131 35.7008 14.9207 35.8743 15.4386H27.9133C27.7461 15.9374 27.6068 16.4451 27.496 16.9593H36.2912C36.5063 17.9585 36.6147 18.9778 36.6145 20C36.6145 21.5947 36.3541 23.129 35.8741 24.5616H27.9132C28.0863 25.0799 28.2892 25.5876 28.5208 26.0824H35.2661C35.021 26.6056 34.7445 27.1135 34.4384 27.6034H29.3484C29.6807 28.1337 30.0468 28.6417 30.4432 29.1231H33.3438C32.8982 29.6648 32.4134 30.1732 31.8934 30.644C34.4422 32.9534 37.8229 34.3604 41.5334 34.3604C49.4645 34.3603 55.8942 27.9314 55.8942 20.0004C55.8942 12.07 49.4646 5.64037 41.5334 5.64037" fill="#EE9F2D"/>
<path d="M53.9809 28.0048C53.9809 27.7487 54.1882 27.5407 54.4446 27.5407C54.7009 27.5407 54.9082 27.7487 54.9082 28.0048C54.9082 28.2607 54.7009 28.4687 54.4446 28.4687C54.1884 28.4686 53.9808 28.2609 53.9809 28.0048ZM54.4446 28.3574C54.6394 28.3573 54.7971 28.1994 54.7972 28.0048C54.7972 27.8101 54.6394 27.6525 54.4449 27.6525H54.4446C54.2502 27.6521 54.0926 27.8095 54.0922 28.0038V28.0049C54.092 28.1994 54.2496 28.3573 54.4442 28.3575C54.4442 28.3574 54.4444 28.3574 54.4446 28.3574ZM54.3819 28.2086H54.2869V27.8011H54.4588C54.4948 27.8011 54.5314 27.8011 54.5632 27.8214C54.5962 27.8437 54.6149 27.883 54.6149 27.9237C54.6149 27.9693 54.5879 28.012 54.5442 28.0286L54.6192 28.2086H54.514L54.4516 28.0473H54.382V28.2086H54.3819ZM54.3819 27.9774H54.4346C54.4542 27.9774 54.4749 27.979 54.4926 27.9694C54.5082 27.9594 54.5162 27.9407 54.5162 27.9227C54.5162 27.9071 54.5066 27.8891 54.4932 27.8814C54.4766 27.8709 54.4503 27.8733 54.4326 27.8733H54.3819V27.9774ZM18.9019 21.5724C18.7383 21.5534 18.6663 21.5483 18.5539 21.5483C17.6703 21.5483 17.223 21.8514 17.223 22.4497C17.223 22.8186 17.4414 23.0534 17.7819 23.0534C18.417 23.0534 18.8746 22.4486 18.9019 21.5724ZM20.0356 24.2121H18.7439L18.7736 23.598C18.3796 24.0833 17.8539 24.314 17.1396 24.314C16.2946 24.314 15.7153 23.654 15.7153 22.6957C15.7153 21.2537 16.723 20.4125 18.4526 20.4125C18.6293 20.4125 18.8559 20.4285 19.0879 20.458C19.1363 20.2627 19.149 20.1791 19.149 20.074C19.149 19.6813 18.8773 19.5349 18.149 19.5349C17.3863 19.5263 16.7573 19.7166 16.499 19.8017C16.5153 19.7033 16.715 18.469 16.715 18.469C17.4919 18.2413 18.0043 18.1557 18.581 18.1557C19.9196 18.1557 20.6286 18.7566 20.6274 19.8926C20.6299 20.197 20.5796 20.5726 20.501 21.0663C20.3656 21.9248 20.0754 23.7637 20.0356 24.2121ZM15.063 24.2121H13.5039L14.397 18.6123L12.403 24.2121H11.3406L11.2094 18.6443L10.2706 24.2121H8.81128L10.0303 16.9277H12.2719L12.4079 21.005L13.7753 16.9277H16.2686L15.063 24.2121ZM43.4614 21.5724C43.2984 21.5534 43.226 21.5483 43.114 21.5483C42.2307 21.5483 41.7833 21.8514 41.7833 22.4497C41.7833 22.8186 42.0014 23.0534 42.3419 23.0534C42.977 23.0534 43.435 22.4486 43.4614 21.5724ZM44.596 24.2121H43.3044L43.3336 23.598C42.9396 24.0833 42.4136 24.314 41.7 24.314C40.8547 24.314 40.276 23.654 40.276 22.6957C40.276 21.2537 41.283 20.4125 43.013 20.4125C43.1896 20.4125 43.4159 20.4285 43.6477 20.458C43.696 20.2627 43.7087 20.1791 43.7087 20.074C43.7087 19.6813 43.4374 19.5349 42.709 19.5349C41.9464 19.5263 41.318 19.7166 41.0586 19.8017C41.075 19.7033 41.2754 18.469 41.2754 18.469C42.0524 18.2413 42.5644 18.1557 43.1403 18.1557C44.4796 18.1557 45.1886 18.7566 45.1874 19.8926C45.1899 20.197 45.1396 20.5726 45.061 21.0663C44.9264 21.9248 44.6354 23.7637 44.596 24.2121ZM26.9648 24.1221C26.5381 24.2565 26.2054 24.314 25.8448 24.314C25.0478 24.314 24.6128 23.856 24.6128 23.0126C24.6014 22.751 24.7274 22.0623 24.8264 21.4337C24.9164 20.8803 25.5024 17.3913 25.5024 17.3913H27.0521L26.8711 18.288H27.8071L27.5957 19.7117H26.6563C26.4763 20.8383 26.22 22.2417 26.217 22.4277C26.217 22.733 26.38 22.8663 26.7506 22.8663C26.9283 22.8663 27.0659 22.8482 27.171 22.8103L26.9648 24.1221ZM31.7161 24.0741C31.1838 24.2367 30.6701 24.3154 30.1258 24.3141C28.3911 24.3124 27.4868 23.4064 27.4868 21.6715C27.4868 19.6465 28.6372 18.1557 30.1988 18.1557C31.4764 18.1557 32.2924 18.9904 32.2924 20.2994C32.2924 20.7337 32.2364 21.1577 32.1014 21.7564H29.0154C28.9111 22.6157 29.461 22.9737 30.3624 22.9737C30.9172 22.9737 31.4174 22.8593 31.9738 22.6007L31.7161 24.0741ZM30.8451 20.5621C30.8537 20.4386 31.0094 19.5047 30.1241 19.5047C29.6304 19.5047 29.2774 19.881 29.1337 20.5621H30.8451ZM20.9715 20.1607C20.9715 20.9101 21.3348 21.4267 22.1588 21.8148C22.7902 22.1115 22.8878 22.1995 22.8878 22.4684C22.8878 22.8377 22.6094 23.0044 21.9925 23.0044C21.5275 23.0044 21.0949 22.9318 20.5958 22.7708C20.5958 22.7708 20.3908 24.0764 20.3814 24.1389C20.7358 24.2161 21.0518 24.2877 22.0038 24.3141C23.6488 24.3141 24.4085 23.6877 24.4085 22.3341C24.4085 21.5201 24.0905 21.0424 23.3095 20.6834C22.6558 20.3834 22.5808 20.3164 22.5808 20.0397C22.5808 19.7194 22.8398 19.5561 23.3438 19.5561C23.6498 19.5561 24.0678 19.5887 24.4638 19.6451L24.6858 18.2711C24.2822 18.2071 23.6702 18.1557 23.3138 18.1557C21.5698 18.1557 20.9662 19.0667 20.9715 20.1607ZM39.2987 18.3114C39.7318 18.3114 40.1354 18.425 40.6918 18.705L40.9467 17.1241C40.7184 17.0345 39.9144 16.5081 39.2334 16.5081C38.1901 16.5081 37.3082 17.0257 36.6878 17.8801C35.783 17.5804 35.4111 18.1861 34.9551 18.7894L34.5502 18.8837C34.5808 18.6851 34.6086 18.4877 34.5992 18.2881H33.1675C32.9719 20.1214 32.6252 21.9785 32.3538 23.8141L32.2831 24.2121H33.8428C34.1031 22.5207 34.2458 21.4377 34.3325 20.7048L34.9198 20.3781C35.0075 20.0517 35.2822 19.9414 35.8331 19.9547C35.759 20.3553 35.722 20.7619 35.7225 21.1694C35.7225 23.1074 36.7682 24.3141 38.4465 24.3141C38.8788 24.3141 39.2498 24.2571 39.8242 24.1015L40.0986 22.4407C39.5818 22.6951 39.1578 22.8148 38.7738 22.8148C37.8675 22.8148 37.3191 22.1458 37.3191 21.0401C37.319 19.4361 38.1347 18.3114 39.2987 18.3114Z" fill="black"/>
<path d="M15.5111 23.7792H13.9518L14.8454 18.1802L12.8514 23.7792H11.7888L11.6575 18.2122L10.7188 23.7792H9.2594L10.4784 16.4958H12.72L12.7831 21.0048L14.2954 16.4958H16.7168L15.5111 23.7792Z" fill="white"/>
<path d="M52.496 16.928L52.1504 19.0326C51.724 18.4717 51.2661 18.0657 50.6615 18.0657C49.8748 18.0657 49.1588 18.662 48.6901 19.5397C48.0375 19.4043 47.3623 19.1746 47.3623 19.1746L47.362 19.18C47.4147 18.6893 47.4356 18.39 47.431 18.2883H45.999C45.804 20.1217 45.4574 21.9787 45.1864 23.8143L45.115 24.2124H46.6744C46.885 22.8446 47.0464 21.7089 47.165 20.8083C47.6977 20.3269 47.9644 19.9069 48.5027 19.9349C48.2644 20.5114 48.1247 21.1753 48.1247 21.8563C48.1247 23.3373 48.874 24.3143 50.0074 24.3143C50.5787 24.3143 51.017 24.1173 51.4447 23.6607L51.3717 24.2114H52.8464L54.0337 16.928H52.496ZM50.5464 22.8433C50.0156 22.8433 49.7477 22.4506 49.7477 21.6756C49.7477 20.5113 50.2494 19.6856 50.9567 19.6856C51.4923 19.6856 51.7823 20.0939 51.7823 20.8462C51.7824 22.0207 51.2728 22.8433 50.5464 22.8433Z" fill="black"/>
<path d="M19.3497 21.1408C19.1863 21.1219 19.114 21.1168 19.002 21.1168C18.1183 21.1168 17.6713 21.4198 17.6713 22.0181C17.6713 22.3864 17.8897 22.6219 18.2297 22.6219C18.8653 22.6218 19.323 22.0172 19.3497 21.1408ZM20.484 23.7795H19.1923L19.2217 23.1664C18.828 23.6508 18.3017 23.8824 17.588 23.8824C16.7427 23.8824 16.1637 23.2224 16.1637 22.2641C16.1637 20.8216 17.171 19.9808 18.901 19.9808C19.0777 19.9808 19.3043 19.9968 19.536 20.0264C19.5843 19.8311 19.597 19.7475 19.597 19.6418C19.597 19.2492 19.3257 19.1034 18.5973 19.1034C17.8343 19.0948 17.2057 19.2852 16.947 19.3692C16.9633 19.2711 17.163 18.0381 17.163 18.0381C17.9397 17.8095 18.4527 17.7237 19.0287 17.7237C20.3677 17.7237 21.077 18.3252 21.0757 19.4601C21.078 19.7657 21.0273 20.1411 20.949 20.6341C20.814 21.4921 20.5234 23.3321 20.484 23.7795ZM41.3944 16.6921L41.1391 18.2735C40.5831 17.9938 40.1791 17.8798 39.7465 17.8798C38.5824 17.8798 37.7665 19.0044 37.7665 20.6084C37.7665 21.714 38.3151 22.3828 39.2211 22.3828C39.6051 22.3828 40.0288 22.2635 40.5455 22.0087L40.2719 23.6687C39.6971 23.8254 39.3266 23.8824 38.8938 23.8824C37.2157 23.8824 36.1698 22.6757 36.1698 20.7377C36.1698 18.1337 37.6145 16.3137 39.6808 16.3137C40.3614 16.3138 41.1658 16.6024 41.3944 16.6921ZM43.9098 21.1408C43.7465 21.1219 43.6745 21.1168 43.5621 21.1168C42.6787 21.1168 42.2314 21.4198 42.2314 22.0181C42.2314 22.3864 42.4497 22.6219 42.7901 22.6219C43.4251 22.6218 43.8831 22.0172 43.9098 21.1408ZM45.0441 23.7795H43.7521L43.7817 23.1664C43.3878 23.6508 42.8617 23.8824 42.1481 23.8824C41.3031 23.8824 40.7238 23.2224 40.7238 22.2641C40.7238 20.8216 41.7314 19.9808 43.4607 19.9808C43.6378 19.9808 43.8641 19.9968 44.096 20.0264C44.1441 19.8311 44.1571 19.7475 44.1571 19.6418C44.1571 19.2492 43.8857 19.1034 43.1574 19.1034C42.3947 19.0948 41.7657 19.2852 41.5071 19.3692C41.5234 19.2711 41.7234 18.0381 41.7234 18.0381C42.5001 17.8095 43.0127 17.7237 43.5887 17.7237C44.928 17.7237 45.637 18.3252 45.6353 19.4601C45.638 19.7657 45.5877 20.1411 45.509 20.6341C45.3744 21.4921 45.0831 23.3321 45.0441 23.7795ZM27.4129 23.6897C26.9859 23.8241 26.6532 23.8824 26.2929 23.8824C25.4959 23.8824 25.0609 23.4244 25.0609 22.5812C25.0499 22.3187 25.1759 21.6307 25.2749 21.0021C25.3645 20.448 25.9506 16.9595 25.9506 16.9595H27.4999L27.3192 17.8564H28.1146L27.9029 19.2795H27.1049C26.9249 20.4068 26.6679 21.809 26.6652 21.9954C26.6652 22.3018 26.8286 22.434 27.1989 22.434C27.3765 22.434 27.5139 22.4167 27.6192 22.3787L27.4129 23.6897ZM32.1643 23.6424C31.6323 23.8051 31.1179 23.8835 30.5739 23.8824C28.8391 23.8808 27.9349 22.9748 27.9349 21.2398C27.9349 19.2141 29.0853 17.7238 30.6469 17.7238C31.9245 17.7238 32.7405 18.5581 32.7405 19.8678C32.7405 20.3024 32.6845 20.7264 32.5499 21.3248H29.4639C29.3595 22.184 29.9095 22.5424 30.8109 22.5424C31.3653 22.5424 31.8659 22.4277 32.4219 22.1684L32.1643 23.6424ZM31.2929 20.1295C31.3023 20.0064 31.4576 19.0721 30.5719 19.0721C30.0786 19.0721 29.7255 19.4495 29.5819 20.1295H31.2929ZM21.4193 19.7292C21.4193 20.4784 21.7827 20.9944 22.6067 21.3832C23.2379 21.6798 23.3356 21.7681 23.3356 22.0368C23.3356 22.4061 23.057 22.5728 22.4407 22.5728C21.9753 22.5728 21.5427 22.5001 21.0433 22.3392C21.0433 22.3392 20.839 23.6448 20.8297 23.7072C21.1833 23.7845 21.4996 23.8552 22.4516 23.8824C24.097 23.8824 24.8563 23.2561 24.8563 21.9028C24.8563 21.0884 24.5387 20.6108 23.7573 20.2518C23.1039 19.9512 23.0283 19.8852 23.0283 19.6081C23.0283 19.2881 23.2879 19.1235 23.7916 19.1235C24.0973 19.1235 24.5153 19.1571 24.9119 19.2135L25.1336 17.8391C24.7303 17.7751 24.1183 17.7238 23.7619 17.7238C22.0176 17.7238 21.4143 18.6341 21.4193 19.7292ZM53.2953 23.7795H51.8203L51.8937 23.228C51.4659 23.6854 51.0277 23.8824 50.4563 23.8824C49.3229 23.8824 48.5739 22.9054 48.5739 21.4244C48.5739 19.454 49.7356 17.793 51.1107 17.793C51.7153 17.793 52.1731 18.04 52.599 18.6007L52.945 16.496H54.4827L53.2953 23.7795ZM50.9957 22.4108C51.7217 22.4108 52.2317 21.5881 52.2317 20.4145C52.2317 19.6621 51.9413 19.2538 51.4057 19.2538C50.6987 19.2538 50.1964 20.0792 50.1964 21.2438C50.1963 22.0187 50.465 22.4108 50.9957 22.4108ZM46.4483 17.8564C46.2531 19.6898 45.9064 21.5468 45.6353 23.3815L45.564 23.7795H47.1233C47.681 20.1575 47.8159 19.4501 48.6903 19.5388C48.8297 18.7975 49.0889 18.1481 49.2823 17.8204C48.6292 17.6844 48.2646 18.0535 47.7872 18.7544C47.8249 18.4515 47.8939 18.1572 47.8803 17.8564H46.4483ZM33.6147 17.8564C33.419 19.6898 33.0723 21.5468 32.8013 23.3815L32.7303 23.7795H34.2903C34.8473 20.1575 34.982 19.4501 35.8559 19.5388C35.9959 18.7975 36.2552 18.1481 36.4479 17.8204C35.7955 17.6844 35.4306 18.0535 34.9536 18.7544C34.9912 18.4515 35.0596 18.1572 35.0466 17.8564H33.6147ZM53.9803 23.3158C53.9803 23.0587 54.1879 22.8518 54.4439 22.8518C54.6997 22.8516 54.9073 23.0588 54.9075 23.3146V23.3158C54.9075 23.5718 54.6999 23.7793 54.4439 23.7795C54.1879 23.7793 53.9804 23.5718 53.9803 23.3158ZM54.4439 23.6681C54.6385 23.6682 54.7962 23.5105 54.7962 23.316V23.3159C54.7964 23.1212 54.6387 22.9634 54.4443 22.9632H54.4439C54.2491 22.9633 54.0913 23.1212 54.0912 23.3159C54.0915 23.5104 54.2493 23.6681 54.4439 23.6681ZM54.3812 23.5185H54.2862V23.1118H54.4585C54.4942 23.1118 54.5311 23.1124 54.5622 23.1321C54.5955 23.1548 54.6145 23.1935 54.6145 23.234C54.6145 23.28 54.5875 23.3231 54.5435 23.3394L54.6187 23.5183H54.5132L54.4508 23.3576H54.3812V23.5183V23.5185ZM54.3812 23.2881H54.4335C54.4531 23.2881 54.4746 23.2896 54.4919 23.2801C54.5075 23.2701 54.5155 23.2512 54.5155 23.2332C54.5147 23.2164 54.5063 23.2008 54.4925 23.1912C54.4762 23.1819 54.4491 23.1844 54.4315 23.1844H54.3811V23.2881H54.3812Z" fill="white"/>
</svg>
