<svg width="115" height="115" viewBox="0 0 115 115" fill="none" xmlns="http://www.w3.org/2000/svg">
<path d="M7 27.1802C7 21.8281 9.12821 16.6952 12.9164 12.9106C16.7047 9.12612 21.8426 7 27.2 7H87.8C93.1574 7 98.2953 9.12612 102.084 12.9106C105.872 16.6952 108 21.8281 108 27.1802V87.7209C108 93.073 105.872 98.2059 102.084 101.99C98.2953 105.775 93.1574 107.901 87.8 107.901H27.2C21.8426 107.901 16.7047 105.775 12.9164 101.99C9.12821 98.2059 7 93.073 7 87.7209V27.1802Z" stroke="white" stroke-width="12.5622" stroke-linecap="round" stroke-linejoin="round"/>
<path d="M39.825 52.4055C46.7975 52.4055 52.45 46.7586 52.45 39.7928C52.45 32.827 46.7975 27.1802 39.825 27.1802C32.8524 27.1802 27.2 32.827 27.2 39.7928C27.2 46.7586 32.8524 52.4055 39.825 52.4055Z" stroke="white" stroke-width="12.5622" stroke-linecap="round" stroke-linejoin="round"/>
<path d="M70.2563 60.5835L27.2 107.901H88.4716C93.6508 107.901 98.618 105.846 102.28 102.187C105.943 98.5282 108 93.566 108 88.3918V87.7208C108 85.3698 107.116 84.4668 105.525 82.7262L85.174 60.5532C84.2254 59.5196 83.0717 58.6948 81.7863 58.1314C80.5009 57.5681 79.1121 57.2787 77.7084 57.2815C76.3048 57.2844 74.9172 57.5795 73.6341 58.148C72.351 58.7165 71.2006 59.546 70.2563 60.5835V60.5835Z" stroke="white" stroke-width="12.5622" stroke-linecap="round" stroke-linejoin="round"/>
</svg>
