<svg width="22" height="26" viewBox="0 0 22 26" fill="none" xmlns="http://www.w3.org/2000/svg">
<path d="M18.25 8.77083H20.6667C20.9871 8.77083 21.2945 8.89814 21.5211 9.12475C21.7477 9.35135 21.875 9.6587 21.875 9.97917V24.4792C21.875 24.7996 21.7477 25.107 21.5211 25.3336C21.2945 25.5602 20.9871 25.6875 20.6667 25.6875H1.33333C1.01286 25.6875 0.705519 25.5602 0.478913 25.3336C0.252306 25.107 0.125 24.7996 0.125 24.4792V9.97917C0.125 9.6587 0.252306 9.35135 0.478913 9.12475C0.705519 8.89814 1.01286 8.77083 1.33333 8.77083H3.75V7.5625C3.75 5.63968 4.51384 3.79561 5.87348 2.43598C7.23312 1.07634 9.07718 0.3125 11 0.3125C12.9228 0.3125 14.7669 1.07634 16.1265 2.43598C17.4862 3.79561 18.25 5.63968 18.25 7.5625V8.77083ZM15.8333 8.77083V7.5625C15.8333 6.28062 15.3241 5.05124 14.4177 4.14482C13.5113 3.23839 12.2819 2.72917 11 2.72917C9.71812 2.72917 8.48874 3.23839 7.58232 4.14482C6.67589 5.05124 6.16667 6.28062 6.16667 7.5625V8.77083H15.8333ZM9.79167 16.0208V18.4375H12.2083V16.0208H9.79167ZM4.95833 16.0208V18.4375H7.375V16.0208H4.95833ZM14.625 16.0208V18.4375H17.0417V16.0208H14.625Z" fill="black"/>
</svg>
