<svg width="28" height="30" viewBox="0 0 28 30" fill="none" xmlns="http://www.w3.org/2000/svg">
<path d="M14 13.65C9.91402 13.65 9.08602 7.45801 9.08602 7.45801C8.60002 4.23601 10.076 0.600006 13.946 0.600006C17.834 0.600006 19.31 4.23601 18.824 7.45801C18.824 7.45801 18.086 13.65 14 13.65ZM14 18.276L18.896 15C23.198 15 27.032 19.194 27.032 23.154V27.636C27.032 27.636 20.462 29.67 14 29.67C7.43002 29.67 0.968018 27.636 0.968018 27.636V23.154C0.968018 19.104 4.46002 15.09 9.01402 15.09L14 18.276Z" fill="#120D0A"/>
</svg>
