<svg width="28" height="30" viewBox="0 0 28 30" fill="none" xmlns="http://www.w3.org/2000/svg">
<path d="M14 13.6501C9.91402 13.6501 9.08602 7.4581 9.08602 7.4581C8.60002 4.2361 10.076 0.600098 13.946 0.600098C17.834 0.600098 19.31 4.2361 18.824 7.4581C18.824 7.4581 18.086 13.6501 14 13.6501ZM14 18.2761L18.896 15.0001C23.198 15.0001 27.032 19.1941 27.032 23.1541V27.6361C27.032 27.6361 20.462 29.6701 14 29.6701C7.43002 29.6701 0.968018 27.6361 0.968018 27.6361V23.1541C0.968018 19.1041 4.46002 15.0901 9.01402 15.0901L14 18.2761Z" fill="#D9222A"/>
</svg>
