<svg width="28" height="28" viewBox="0 0 28 28" fill="none" xmlns="http://www.w3.org/2000/svg">
<path d="M17.852 3.52399C19.456 5.12996 20.4599 7.23801 20.6959 9.49553C20.9318 11.753 20.3853 14.0231 19.148 15.926C19.364 16.106 19.544 16.304 19.796 16.484C20.156 16.772 20.642 17.132 21.254 17.546C21.866 17.978 22.262 18.248 22.442 18.392C23.198 18.95 23.756 19.418 24.134 19.796C24.71 20.372 25.214 20.966 25.646 21.596C26.096 22.226 26.438 22.838 26.708 23.468C26.96 24.098 27.086 24.692 27.032 25.268C26.996 25.844 26.78 26.33 26.384 26.726C25.988 27.122 25.502 27.338 24.926 27.374C24.368 27.41 23.756 27.302 23.144 27.032C22.514 26.78 21.884 26.42 21.272 25.97C20.642 25.538 20.048 25.034 19.472 24.458C19.094 24.08 18.626 23.522 18.086 22.784C17.906 22.55 17.636 22.154 17.24 21.596C16.844 21.02 16.52 20.57 16.232 20.192C15.944 19.832 15.71 19.562 15.44 19.292C13.5717 20.2703 11.4399 20.6267 9.35494 20.3095C7.26999 19.9922 5.34073 19.0177 3.84798 17.528C-0.0040158 13.658 -0.0040158 7.376 3.84798 3.52399C4.7671 2.60377 5.8586 1.87375 7.06006 1.37567C8.26152 0.877587 9.54937 0.621216 10.85 0.621216C12.1506 0.621216 13.4385 0.877587 14.6399 1.37567C15.8414 1.87375 16.9329 2.60377 17.852 3.52399ZM15.314 14.972C16.4899 13.7875 17.1498 12.1861 17.1498 10.517C17.1498 8.84791 16.4899 7.24651 15.314 6.062C14.7296 5.47584 14.0352 5.01078 13.2708 4.69346C12.5063 4.37614 11.6867 4.2128 10.859 4.2128C10.0313 4.2128 9.21169 4.37614 8.44721 4.69346C7.68274 5.01078 6.9884 5.47584 6.40398 6.062C5.81783 6.64641 5.35277 7.34075 5.03545 8.10523C4.71813 8.8697 4.55479 9.68928 4.55479 10.517C4.55479 11.3447 4.71813 12.1643 5.03545 12.9288C5.35277 13.6932 5.81783 14.3876 6.40398 14.972C6.9884 15.5581 7.68274 16.0232 8.44721 16.3405C9.21169 16.6578 10.0313 16.8212 10.859 16.8212C11.6867 16.8212 12.5063 16.6578 13.2708 16.3405C14.0352 16.0232 14.7296 15.5581 15.314 14.972Z" fill="#120D0A"/>
</svg>
