<svg width="28" height="28" viewBox="0 0 28 28" fill="none" xmlns="http://www.w3.org/2000/svg">
<path d="M17.852 3.52412C19.456 5.13008 20.4599 7.23813 20.6959 9.49565C20.9318 11.7532 20.3853 14.0232 19.148 15.9261C19.364 16.1061 19.544 16.3041 19.796 16.4841C20.156 16.7721 20.642 17.1321 21.254 17.5461C21.866 17.9781 22.262 18.2481 22.442 18.3921C23.198 18.9501 23.756 19.4181 24.134 19.7961C24.71 20.3721 25.214 20.9661 25.646 21.5961C26.096 22.2261 26.438 22.8381 26.708 23.4681C26.96 24.0981 27.086 24.6921 27.032 25.2681C26.996 25.8441 26.78 26.3301 26.384 26.7261C25.988 27.1221 25.502 27.3381 24.926 27.3741C24.368 27.4101 23.756 27.3021 23.144 27.0321C22.514 26.7801 21.884 26.4201 21.272 25.9701C20.642 25.5381 20.048 25.0341 19.472 24.4581C19.094 24.0801 18.626 23.5221 18.086 22.7841C17.906 22.5501 17.636 22.1541 17.24 21.5961C16.844 21.0201 16.52 20.5701 16.232 20.1921C15.944 19.8321 15.71 19.5621 15.44 19.2921C13.5717 20.2704 11.4399 20.6269 9.35494 20.3096C7.26999 19.9923 5.34073 19.0179 3.84798 17.5281C-0.0040158 13.6581 -0.0040158 7.37612 3.84798 3.52412C4.7671 2.6039 5.8586 1.87387 7.06006 1.37579C8.26152 0.877709 9.54937 0.621338 10.85 0.621338C12.1506 0.621338 13.4385 0.877709 14.6399 1.37579C15.8414 1.87387 16.9329 2.6039 17.852 3.52412ZM15.314 14.9721C16.4899 13.7876 17.1498 12.1862 17.1498 10.5171C17.1498 8.84803 16.4899 7.24663 15.314 6.06212C14.7296 5.47597 14.0352 5.01091 13.2708 4.69358C12.5063 4.37627 11.6867 4.21293 10.859 4.21293C10.0313 4.21293 9.21169 4.37627 8.44721 4.69358C7.68274 5.01091 6.9884 5.47597 6.40398 6.06212C5.81783 6.64653 5.35277 7.34087 5.03545 8.10535C4.71813 8.86982 4.55479 9.6894 4.55479 10.5171C4.55479 11.3448 4.71813 12.1644 5.03545 12.9289C5.35277 13.6934 5.81783 14.3877 6.40398 14.9721C6.9884 15.5583 7.68274 16.0233 8.44721 16.3406C9.21169 16.658 10.0313 16.8213 10.859 16.8213C11.6867 16.8213 12.5063 16.658 13.2708 16.3406C14.0352 16.0233 14.7296 15.5583 15.314 14.9721Z" fill="#D9222A"/>
</svg>
