<svg width="34" height="32" viewBox="0 0 34 32" fill="none" xmlns="http://www.w3.org/2000/svg">
<path d="M9.80005 20.4001H26C26.99 20.4001 27.8001 21.2101 27.8001 22.2001C27.8001 23.1901 26.99 24.0001 26 24.0001H8.00005C7.01005 24.0001 6.20005 23.1901 6.20005 22.2001V4.2001H2.60005C1.61005 4.2001 0.800049 3.3901 0.800049 2.4001C0.800049 1.4101 1.61005 0.600098 2.60005 0.600098H8.00005C8.99005 0.600098 9.80005 1.4101 9.80005 2.4001V6.0001H33.2001L26 18.6001H9.80005V20.4001ZM8.90005 25.8001C10.394 25.8001 11.6 27.0061 11.6 28.5001C11.6 29.9941 10.394 31.2001 8.90005 31.2001C7.40605 31.2001 6.20005 29.9941 6.20005 28.5001C6.20005 27.0061 7.40605 25.8001 8.90005 25.8001ZM25.1 25.8001C26.594 25.8001 27.8001 27.0061 27.8001 28.5001C27.8001 29.9941 26.594 31.2001 25.1 31.2001C23.6061 31.2001 22.4 29.9941 22.4 28.5001C22.4 27.0061 23.6061 25.8001 25.1 25.8001Z" fill="#D9222A"/>
</svg>
