<svg width="34" height="32" viewBox="0 0 34 32" fill="none" xmlns="http://www.w3.org/2000/svg">
<path d="M9.80005 20.4H26C26.99 20.4 27.8001 21.21 27.8001 22.2C27.8001 23.19 26.99 24 26 24H8.00005C7.01005 24 6.20005 23.19 6.20005 22.2V4.20001H2.60005C1.61005 4.20001 0.800049 3.39001 0.800049 2.40001C0.800049 1.41001 1.61005 0.600006 2.60005 0.600006H8.00005C8.99005 0.600006 9.80005 1.41001 9.80005 2.40001V6.00001H33.2001L26 18.6H9.80005V20.4ZM8.90005 25.8C10.394 25.8 11.6 27.006 11.6 28.5C11.6 29.994 10.394 31.2 8.90005 31.2C7.40605 31.2 6.20005 29.994 6.20005 28.5C6.20005 27.006 7.40605 25.8 8.90005 25.8ZM25.1 25.8C26.594 25.8 27.8001 27.006 27.8001 28.5C27.8001 29.994 26.594 31.2 25.1 31.2C23.6061 31.2 22.4 29.994 22.4 28.5C22.4 27.006 23.6061 25.8 25.1 25.8Z" fill="#120D0A"/>
</svg>
