<svg width="25" height="24" viewBox="0 0 25 24" fill="none" xmlns="http://www.w3.org/2000/svg">
<path d="M7.10001 15.55H19.25C19.9925 15.55 20.6 16.1575 20.6 16.9C20.6 17.6425 19.9925 18.25 19.25 18.25H5.75001C5.00751 18.25 4.40001 17.6425 4.40001 16.9V3.40001H1.70001C0.957506 3.40001 0.350006 2.79251 0.350006 2.05001C0.350006 1.30751 0.957506 0.700012 1.70001 0.700012H5.75001C6.49251 0.700012 7.10001 1.30751 7.10001 2.05001V4.75001H24.65L19.25 14.2H7.10001V15.55ZM6.42501 19.6C7.54551 19.6 8.45001 20.5045 8.45001 21.625C8.45001 22.7455 7.54551 23.65 6.42501 23.65C5.30451 23.65 4.40001 22.7455 4.40001 21.625C4.40001 20.5045 5.30451 19.6 6.42501 19.6ZM18.575 19.6C19.6955 19.6 20.6 20.5045 20.6 21.625C20.6 22.7455 19.6955 23.65 18.575 23.65C17.4545 23.65 16.55 22.7455 16.55 21.625C16.55 20.5045 17.4545 19.6 18.575 19.6Z" fill="white"/>
</svg>
