<svg width="64" height="40" viewBox="0 0 64 40" fill="none" xmlns="http://www.w3.org/2000/svg">
<path d="M60.2972 0H3.39703C1.5209 0 0 1.5209 0 3.39703V36.603C0 38.4791 1.5209 40 3.39703 40H60.2972C62.1734 40 63.6943 38.4791 63.6943 36.603V3.39703C63.6943 1.5209 62.1734 0 60.2972 0Z" fill="#737578"/>
<path d="M23.6265 28.3843L26.4597 11.759H30.9912L28.1561 28.3843H23.6265Z" fill="white"/>
<path d="M44.5274 12.1177C43.6295 11.7809 42.2228 11.4194 40.466 11.4194C35.9884 11.4194 32.8342 13.6743 32.8074 16.906C32.7822 19.2948 35.0591 20.6275 36.778 21.4227C38.5418 22.2376 39.1349 22.7574 39.1264 23.485C39.1152 24.5994 37.7179 25.1085 36.4154 25.1085C34.6016 25.1085 33.638 24.8565 32.1499 24.2358L31.5659 23.9715L30.9299 27.6933C31.9884 28.1574 33.9456 28.5595 35.9777 28.5803C40.7411 28.5803 43.8335 26.3512 43.8686 22.9003C43.8857 21.0091 42.6784 19.5698 40.064 18.3833C38.4801 17.6142 37.5101 17.101 37.5203 16.3222C37.5203 15.6312 38.3414 14.8922 40.1154 14.8922C41.5973 14.8692 42.6707 15.1923 43.507 15.5292L43.9131 15.721L44.5274 12.1177Z" fill="white"/>
<path d="M56.1884 11.759H52.6868C51.6021 11.759 50.7904 12.0551 50.3139 13.1377L43.584 28.3736H48.3425C48.3425 28.3736 49.1205 26.3251 49.2965 25.8753C49.8165 25.8753 54.4391 25.8824 55.1 25.8824C55.2355 26.4644 55.6513 28.3736 55.6513 28.3736H59.8562L56.1884 11.759ZM50.6328 22.4942C51.0076 21.5364 52.4383 17.8468 52.4383 17.8468C52.4115 17.8911 52.8102 16.8843 53.0391 16.2601L53.3454 17.6935C53.3454 17.6935 54.2131 21.662 54.3944 22.4942H50.6328V22.4942Z" fill="white"/>
<path d="M3.89651 11.759L3.83862 12.105C5.62979 12.5386 7.22964 13.1661 8.63029 13.9467L12.6512 28.3579L17.4456 28.3522L24.5797 11.759H19.7796L15.3431 23.0963L14.8703 20.7923C14.8485 20.722 14.8248 20.6514 14.8005 20.5809L13.2577 13.1626C12.9834 12.1099 12.1878 11.7957 11.2036 11.759H3.89651Z" fill="white"/>
</svg>
