<svg width="28" height="20" viewBox="0 0 28 20" fill="none" xmlns="http://www.w3.org/2000/svg">
<path d="M27.3619 1.30676C27.5542 0.554019 27.3619 0 26.4366 0H23.3751C22.5954 0 22.2367 0.475733 22.0444 1.00566C22.0444 1.00566 20.485 5.4077 18.2811 8.2621C17.569 9.08711 17.2415 9.35208 16.8517 9.35208C16.6593 9.35208 16.3631 9.08711 16.3631 8.33437V1.30676C16.3631 0.40347 16.1447 0 15.5002 0H10.6869C10.1983 0 9.90724 0.421536 9.90724 0.812962C9.90724 1.66808 11.0092 1.8668 11.1236 4.27558V9.50263C11.1236 10.6468 10.9468 10.8576 10.557 10.8576C9.5174 10.8576 6.99121 6.43746 5.4942 1.37902C5.19272 0.397448 4.89644 0 4.11156 0H1.04998C0.176729 0 0 0.475733 0 1.00566C0 1.94509 1.03958 6.61209 4.83927 12.7786C7.37065 16.9879 10.9364 19.2702 14.1799 19.2702C16.1292 19.2702 16.3683 18.7644 16.3683 17.8912C16.3683 13.8685 16.1915 13.4892 17.1687 13.4892C17.621 13.4892 18.4006 13.7541 20.2199 15.7835C22.2991 18.1923 22.6422 19.2702 23.8065 19.2702H26.8681C27.7413 19.2702 28.1831 18.7644 27.9284 17.7647C27.3463 15.6631 23.4114 11.3393 23.2347 11.0503C22.7825 10.3758 22.9124 10.0747 23.2347 9.47252C23.2399 9.46649 26.9772 3.37229 27.3619 1.30676Z" fill="black"/>
</svg>
