<svg width="24" height="17" viewBox="0 0 24 17" fill="none" xmlns="http://www.w3.org/2000/svg">
<path d="M23.1346 1.75559C23.2948 1.12831 23.1346 0.666626 22.3635 0.666626H19.8122C19.1625 0.666626 18.8636 1.06307 18.7033 1.50468C18.7033 1.50468 17.4039 5.17305 15.5673 7.55171C14.9738 8.23922 14.7009 8.46002 14.3761 8.46002C14.2158 8.46002 13.9689 8.23922 13.9689 7.61193V1.75559C13.9689 1.00285 13.787 0.666626 13.2498 0.666626H9.23878C8.83161 0.666626 8.58904 1.01791 8.58904 1.34409C8.58904 2.05669 9.50734 2.22229 9.60264 4.22961V8.58548C9.60264 9.53895 9.45536 9.71459 9.13049 9.71459C8.26417 9.71459 6.15901 6.03117 4.91151 1.81581C4.66028 0.997833 4.41338 0.666626 3.7593 0.666626H1.20799C0.480282 0.666626 0.333008 1.06307 0.333008 1.50468C0.333008 2.28753 1.19933 6.1767 4.36573 11.3154C6.47522 14.8232 9.4467 16.7251 12.1496 16.7251C13.774 16.7251 13.9732 16.3036 13.9732 15.576C13.9732 12.2237 13.8259 11.9076 14.6403 11.9076C15.0171 11.9076 15.6669 12.1284 17.1829 13.8196C18.9156 15.8269 19.2015 16.7251 20.1717 16.7251H22.7231C23.4508 16.7251 23.819 16.3036 23.6067 15.4706C23.1216 13.7192 19.8425 10.1161 19.6953 9.87518C19.3184 9.31313 19.4267 9.06222 19.6953 8.56039C19.6996 8.55537 22.814 3.47687 23.1346 1.75559Z" fill="#636363"/>
</svg>
