<svg width="30" height="30" viewBox="0 0 30 30" fill="none" xmlns="http://www.w3.org/2000/svg">
<path d="M27.24 7.25988C22.92 0.599878 14.1 -1.38012 7.26 2.75988C0.6 6.89988 -1.56 15.8999 2.76 22.5599L3.12 23.0999L1.68 28.4999L7.08 27.0599L7.62 27.4199C9.96 28.6799 12.48 29.3999 15 29.3999C17.7 29.3999 20.4 28.6799 22.74 27.2399C29.4 22.9199 31.38 14.0999 27.24 7.25988ZM23.46 21.1199C22.74 22.1999 21.84 22.9199 20.58 23.0999C19.86 23.0999 18.96 23.4599 15.36 22.0199C12.3 20.5799 9.78 18.2399 7.98 15.5399C6.9 14.2799 6.36 12.6599 6.18 11.0399C6.18 9.59988 6.72 8.33988 7.62 7.43988C7.98 7.07988 8.34 6.89988 8.7 6.89988H9.6C9.96 6.89988 10.32 6.89988 10.5 7.61988C10.86 8.51988 11.76 10.6799 11.76 10.8599C11.94 11.0399 11.94 11.3999 11.76 11.5799C11.94 11.9399 11.76 12.2999 11.58 12.4799C11.4 12.6599 11.22 13.0199 11.04 13.1999C10.68 13.3799 10.5 13.7399 10.68 14.0999C11.4 15.1799 12.3 16.2599 13.2 17.1599C14.28 18.0599 15.36 18.7799 16.62 19.3199C16.98 19.4999 17.34 19.4999 17.52 19.1399C17.7 18.7799 18.6 17.8799 18.96 17.5199C19.32 17.1599 19.5 17.1599 19.86 17.3399L22.74 18.7799C23.1 18.9599 23.46 19.1399 23.64 19.3199C23.82 19.8599 23.82 20.5799 23.46 21.1199Z" fill="#120D0A"/>
</svg>
