<svg width="25" height="24" viewBox="0 0 25 24" fill="none" xmlns="http://www.w3.org/2000/svg">
<path d="M23.1999 5.55006C19.5999 6.06775e-05 12.2499 -1.64994 6.54991 1.80006C0.999913 5.25006 -0.800086 12.7501 2.79991 18.3001L3.09991 18.7501L1.89991 23.2501L6.39991 22.0501L6.84991 22.3501C8.79991 23.4001 10.8999 24.0001 12.9999 24.0001C15.2499 24.0001 17.4999 23.4001 19.4499 22.2001C24.9999 18.6001 26.6499 11.2501 23.1999 5.55006V5.55006ZM20.0499 17.1001C19.4499 18.0001 18.6999 18.6001 17.6499 18.7501C17.0499 18.7501 16.2999 19.0501 13.2999 17.8501C10.7499 16.6501 8.64991 14.7001 7.14991 12.4501C6.24991 11.4001 5.79991 10.0501 5.64991 8.70006C5.64991 7.50006 6.09991 6.45006 6.84991 5.70006C7.14991 5.40006 7.44991 5.25006 7.74991 5.25006H8.49991C8.79991 5.25006 9.09991 5.25006 9.24991 5.85006C9.54991 6.60006 10.2999 8.40006 10.2999 8.55006C10.4499 8.70006 10.4499 9.00006 10.2999 9.15006C10.4499 9.45006 10.2999 9.75006 10.1499 9.90006C9.99991 10.0501 9.84991 10.3501 9.69991 10.5001C9.39991 10.6501 9.24991 10.9501 9.39991 11.2501C9.99991 12.1501 10.7499 13.0501 11.4999 13.8001C12.3999 14.5501 13.2999 15.1501 14.3499 15.6001C14.6499 15.7501 14.9499 15.7501 15.0999 15.4501C15.2499 15.1501 15.9999 14.4001 16.2999 14.1001C16.5999 13.8001 16.7499 13.8001 17.0499 13.9501L19.4499 15.1501C19.7499 15.3001 20.0499 15.4501 20.1999 15.6001C20.3499 16.0501 20.3499 16.6501 20.0499 17.1001V17.1001Z" fill="#636363"/>
</svg>
